<svg width="224" height="27" viewBox="0 0 224 27" fill="none" xmlns="http://www.w3.org/2000/svg">
<path d="M3.7299 4.79V9.34H9.8399V12.226H3.7299V17.036H10.6199V20H0.0898986V1.826H10.6199V4.79H3.7299ZM12.9918 12.746C12.9918 11.29 13.2778 9.99867 13.8498 8.872C14.4391 7.74533 15.2278 6.87867 16.2158 6.272C17.2211 5.66533 18.3391 5.362 19.5698 5.362C20.6445 5.362 21.5805 5.57867 22.3778 6.012C23.1925 6.44533 23.8425 6.99133 24.3278 7.65V5.596H27.9938V20H24.3278V17.894C23.8598 18.57 23.2098 19.1333 22.3778 19.584C21.5631 20.0173 20.6185 20.234 19.5438 20.234C18.3305 20.234 17.2211 19.922 16.2158 19.298C15.2278 18.674 14.4391 17.7987 13.8498 16.672C13.2778 15.528 12.9918 14.2193 12.9918 12.746ZM24.3278 12.798C24.3278 11.914 24.1545 11.16 23.8078 10.536C23.4611 9.89467 22.9931 9.40933 22.4038 9.08C21.8145 8.73333 21.1818 8.56 20.5058 8.56C19.8298 8.56 19.2058 8.72467 18.6338 9.054C18.0618 9.38333 17.5938 9.86867 17.2298 10.51C16.8831 11.134 16.7098 11.8793 16.7098 12.746C16.7098 13.6127 16.8831 14.3753 17.2298 15.034C17.5938 15.6753 18.0618 16.1693 18.6338 16.516C19.2231 16.8627 19.8471 17.036 20.5058 17.036C21.1818 17.036 21.8145 16.8713 22.4038 16.542C22.9931 16.1953 23.4611 15.71 23.8078 15.086C24.1545 14.4447 24.3278 13.682 24.3278 12.798ZM37.0609 20.234C35.8822 20.234 34.8249 20.026 33.8889 19.61C32.9529 19.1767 32.2075 18.596 31.6529 17.868C31.1155 17.14 30.8209 16.334 30.7689 15.45H34.4349C34.5042 16.0047 34.7729 16.464 35.2409 16.828C35.7262 17.192 36.3242 17.374 37.0349 17.374C37.7282 17.374 38.2655 17.2353 38.6469 16.958C39.0455 16.6807 39.2449 16.3253 39.2449 15.892C39.2449 15.424 39.0022 15.0773 38.5169 14.852C38.0489 14.6093 37.2949 14.3493 36.2549 14.072C35.1802 13.812 34.2962 13.5433 33.6029 13.266C32.9269 12.9887 32.3375 12.564 31.8349 11.992C31.3495 11.42 31.1069 10.6487 31.1069 9.678C31.1069 8.88067 31.3322 8.15267 31.7829 7.494C32.2509 6.83533 32.9095 6.31533 33.7589 5.934C34.6255 5.55267 35.6395 5.362 36.8009 5.362C38.5169 5.362 39.8862 5.79533 40.9089 6.662C41.9316 7.51133 42.4949 8.664 42.5989 10.12H39.1149C39.0629 9.548 38.8202 9.09733 38.3869 8.768C37.9709 8.42133 37.4076 8.248 36.6969 8.248C36.0382 8.248 35.5269 8.36933 35.1629 8.612C34.8162 8.85467 34.6429 9.19267 34.6429 9.626C34.6429 10.1113 34.8855 10.484 35.3709 10.744C35.8562 10.9867 36.6102 11.238 37.6329 11.498C38.6729 11.758 39.5309 12.0267 40.2069 12.304C40.8829 12.5813 41.4635 13.0147 41.9489 13.604C42.4516 14.176 42.7116 14.9387 42.7289 15.892C42.7289 16.724 42.4949 17.4693 42.0269 18.128C41.5762 18.7867 40.9175 19.3067 40.0509 19.688C39.2015 20.052 38.2049 20.234 37.0609 20.234ZM59.4969 5.596L50.5789 26.812H46.7049L49.8249 19.636L44.0529 5.596H48.1349L51.8529 15.658L55.6229 5.596H59.4969ZM71.8924 8.586V15.554C71.8924 16.0393 72.005 16.3947 72.2304 16.62C72.473 16.828 72.8717 16.932 73.4264 16.932H75.1164V20H72.8284C69.7604 20 68.2264 18.5093 68.2264 15.528V8.586H66.5104V5.596H68.2264V2.034H71.8924V5.596H75.1164V8.586H71.8924ZM84.1304 20.234C82.7438 20.234 81.4958 19.9307 80.3864 19.324C79.2771 18.7 78.4018 17.8247 77.7604 16.698C77.1364 15.5713 76.8244 14.2713 76.8244 12.798C76.8244 11.3247 77.1451 10.0247 77.7864 8.898C78.4451 7.77133 79.3378 6.90467 80.4644 6.298C81.5911 5.674 82.8478 5.362 84.2344 5.362C85.6211 5.362 86.8778 5.674 88.0044 6.298C89.1311 6.90467 90.0151 7.77133 90.6564 8.898C91.3151 10.0247 91.6444 11.3247 91.6444 12.798C91.6444 14.2713 91.3064 15.5713 90.6304 16.698C89.9718 17.8247 89.0704 18.7 87.9264 19.324C86.7998 19.9307 85.5344 20.234 84.1304 20.234ZM84.1304 17.062C84.7891 17.062 85.4044 16.906 85.9764 16.594C86.5658 16.2647 87.0338 15.7793 87.3804 15.138C87.7271 14.4967 87.9004 13.7167 87.9004 12.798C87.9004 11.4287 87.5364 10.38 86.8084 9.652C86.0978 8.90667 85.2224 8.534 84.1824 8.534C83.1424 8.534 82.2671 8.90667 81.5564 9.652C80.8631 10.38 80.5164 11.4287 80.5164 12.798C80.5164 14.1673 80.8544 15.2247 81.5304 15.97C82.2238 16.698 83.0904 17.062 84.1304 17.062ZM104.15 7.676C104.618 7.01733 105.259 6.47133 106.074 6.038C106.906 5.58733 107.85 5.362 108.908 5.362C110.138 5.362 111.248 5.66533 112.236 6.272C113.241 6.87867 114.03 7.74533 114.602 8.872C115.191 9.98133 115.486 11.2727 115.486 12.746C115.486 14.2193 115.191 15.528 114.602 16.672C114.03 17.7987 113.241 18.674 112.236 19.298C111.248 19.922 110.138 20.234 108.908 20.234C107.85 20.234 106.914 20.0173 106.1 19.584C105.302 19.1507 104.652 18.6047 104.15 17.946V26.864H100.51V5.596H104.15V7.676ZM111.768 12.746C111.768 11.8793 111.586 11.134 111.222 10.51C110.875 9.86867 110.407 9.38333 109.818 9.054C109.246 8.72467 108.622 8.56 107.946 8.56C107.287 8.56 106.663 8.73333 106.074 9.08C105.502 9.40933 105.034 9.89467 104.67 10.536C104.323 11.1773 104.15 11.9313 104.15 12.798C104.15 13.6647 104.323 14.4187 104.67 15.06C105.034 15.7013 105.502 16.1953 106.074 16.542C106.663 16.8713 107.287 17.036 107.946 17.036C108.622 17.036 109.246 16.8627 109.818 16.516C110.407 16.1693 110.875 15.6753 111.222 15.034C111.586 14.3927 111.768 13.63 111.768 12.746ZM131.729 5.596V20H128.063V18.18C127.595 18.804 126.98 19.298 126.217 19.662C125.472 20.0087 124.657 20.182 123.773 20.182C122.646 20.182 121.65 19.948 120.783 19.48C119.916 18.9947 119.232 18.2927 118.729 17.374C118.244 16.438 118.001 15.3287 118.001 14.046V5.596H121.641V13.526C121.641 14.67 121.927 15.554 122.499 16.178C123.071 16.7847 123.851 17.088 124.839 17.088C125.844 17.088 126.633 16.7847 127.205 16.178C127.777 15.554 128.063 14.67 128.063 13.526V5.596H131.729ZM138.96 7.832C139.428 7.06933 140.035 6.47133 140.78 6.038C141.543 5.60467 142.41 5.388 143.38 5.388V9.21H142.418C141.274 9.21 140.408 9.47867 139.818 10.016C139.246 10.5533 138.96 11.4893 138.96 12.824V20H135.32V5.596H138.96V7.832ZM144.896 12.798C144.896 11.3073 145.199 10.0073 145.806 8.898C146.413 7.77133 147.253 6.90467 148.328 6.298C149.403 5.674 150.633 5.362 152.02 5.362C153.805 5.362 155.279 5.81267 156.44 6.714C157.619 7.598 158.407 8.846 158.806 10.458H154.88C154.672 9.834 154.317 9.34867 153.814 9.002C153.329 8.638 152.722 8.456 151.994 8.456C150.954 8.456 150.131 8.83733 149.524 9.6C148.917 10.3453 148.614 11.4113 148.614 12.798C148.614 14.1673 148.917 15.2333 149.524 15.996C150.131 16.7413 150.954 17.114 151.994 17.114C153.467 17.114 154.429 16.4553 154.88 15.138H158.806C158.407 16.698 157.619 17.9373 156.44 18.856C155.261 19.7747 153.788 20.234 152.02 20.234C150.633 20.234 149.403 19.9307 148.328 19.324C147.253 18.7 146.413 17.8333 145.806 16.724C145.199 15.5973 144.896 14.2887 144.896 12.798ZM169.585 5.388C170.677 5.388 171.647 5.63067 172.497 6.116C173.346 6.584 174.005 7.286 174.473 8.222C174.958 9.14067 175.201 10.25 175.201 11.55V20H171.561V12.044C171.561 10.9 171.275 10.0247 170.703 9.418C170.131 8.794 169.351 8.482 168.363 8.482C167.357 8.482 166.56 8.794 165.971 9.418C165.399 10.0247 165.113 10.9 165.113 12.044V20H161.473V0.76H165.113V7.39C165.581 6.766 166.205 6.28067 166.985 5.934C167.765 5.57 168.631 5.388 169.585 5.388ZM177.726 12.746C177.726 11.29 178.012 9.99867 178.584 8.872C179.173 7.74533 179.962 6.87867 180.95 6.272C181.955 5.66533 183.073 5.362 184.304 5.362C185.379 5.362 186.315 5.57867 187.112 6.012C187.927 6.44533 188.577 6.99133 189.062 7.65V5.596H192.728V20H189.062V17.894C188.594 18.57 187.944 19.1333 187.112 19.584C186.297 20.0173 185.353 20.234 184.278 20.234C183.065 20.234 181.955 19.922 180.95 19.298C179.962 18.674 179.173 17.7987 178.584 16.672C178.012 15.528 177.726 14.2193 177.726 12.746ZM189.062 12.798C189.062 11.914 188.889 11.16 188.542 10.536C188.195 9.89467 187.727 9.40933 187.138 9.08C186.549 8.73333 185.916 8.56 185.24 8.56C184.564 8.56 183.94 8.72467 183.368 9.054C182.796 9.38333 182.328 9.86867 181.964 10.51C181.617 11.134 181.444 11.8793 181.444 12.746C181.444 13.6127 181.617 14.3753 181.964 15.034C182.328 15.6753 182.796 16.1693 183.368 16.516C183.957 16.8627 184.581 17.036 185.24 17.036C185.916 17.036 186.549 16.8713 187.138 16.542C187.727 16.1953 188.195 15.71 188.542 15.086C188.889 14.4447 189.062 13.682 189.062 12.798ZM201.795 20.234C200.617 20.234 199.559 20.026 198.623 19.61C197.687 19.1767 196.942 18.596 196.387 17.868C195.85 17.14 195.555 16.334 195.503 15.45H199.169C199.239 16.0047 199.507 16.464 199.975 16.828C200.461 17.192 201.059 17.374 201.769 17.374C202.463 17.374 203 17.2353 203.381 16.958C203.78 16.6807 203.979 16.3253 203.979 15.892C203.979 15.424 203.737 15.0773 203.251 14.852C202.783 14.6093 202.029 14.3493 200.989 14.072C199.915 13.812 199.031 13.5433 198.337 13.266C197.661 12.9887 197.072 12.564 196.569 11.992C196.084 11.42 195.841 10.6487 195.841 9.678C195.841 8.88067 196.067 8.15267 196.517 7.494C196.985 6.83533 197.644 6.31533 198.493 5.934C199.36 5.55267 200.374 5.362 201.535 5.362C203.251 5.362 204.621 5.79533 205.643 6.662C206.666 7.51133 207.229 8.664 207.333 10.12H203.849C203.797 9.548 203.555 9.09733 203.121 8.768C202.705 8.42133 202.142 8.248 201.431 8.248C200.773 8.248 200.261 8.36933 199.897 8.612C199.551 8.85467 199.377 9.19267 199.377 9.626C199.377 10.1113 199.62 10.484 200.105 10.744C200.591 10.9867 201.345 11.238 202.367 11.498C203.407 11.758 204.265 12.0267 204.941 12.304C205.617 12.5813 206.198 13.0147 206.683 13.604C207.186 14.176 207.446 14.9387 207.463 15.892C207.463 16.724 207.229 17.4693 206.761 18.128C206.311 18.7867 205.652 19.3067 204.785 19.688C203.936 20.052 202.939 20.234 201.795 20.234ZM223.841 12.486C223.841 13.006 223.807 13.474 223.737 13.89H213.207C213.294 14.93 213.658 15.7447 214.299 16.334C214.941 16.9233 215.729 17.218 216.665 17.218C218.017 17.218 218.979 16.6373 219.551 15.476H223.477C223.061 16.8627 222.264 18.0067 221.085 18.908C219.907 19.792 218.459 20.234 216.743 20.234C215.357 20.234 214.109 19.9307 212.999 19.324C211.907 18.7 211.049 17.8247 210.425 16.698C209.819 15.5713 209.515 14.2713 209.515 12.798C209.515 11.3073 209.819 9.99867 210.425 8.872C211.032 7.74533 211.881 6.87867 212.973 6.272C214.065 5.66533 215.322 5.362 216.743 5.362C218.113 5.362 219.335 5.65667 220.409 6.246C221.501 6.83533 222.342 7.676 222.931 8.768C223.538 9.84267 223.841 11.082 223.841 12.486ZM220.071 11.446C220.054 10.51 219.716 9.76467 219.057 9.21C218.399 8.638 217.593 8.352 216.639 8.352C215.738 8.352 214.975 8.62933 214.351 9.184C213.745 9.72133 213.372 10.4753 213.233 11.446H220.071Z" fill="#39364E"/>
</svg>
