<svg width="14" height="14" viewBox="0 0 14 14" fill="none" xmlns="http://www.w3.org/2000/svg">
<g id="in-love 1" clip-path="url(#clip0_1_2035)">
<path id="Vector" d="M7.00002 14C10.866 14 14 10.866 14 7.00002C14 3.13401 10.866 0 7.00002 0C3.13401 0 0 3.13401 0 7.00002C0 10.866 3.13401 14 7.00002 14Z" fill="#FFC10E"/>
<g id="Group">
<path id="Vector_2" d="M5.38016 3.24829C4.96267 3.24829 4.57484 3.45188 4.34171 3.79277L4.29362 3.85389L4.26145 3.81289C4.03097 3.45953 3.64246 3.24841 3.22069 3.24841C2.501 3.24841 1.97876 3.7708 1.97876 4.49025C1.97876 5.55257 3.90203 7.11838 4.04229 7.2311C4.10849 7.29444 4.19516 7.32926 4.28712 7.32926C4.37908 7.32926 4.46575 7.29455 4.53195 7.23101C4.67265 7.11737 6.622 5.52705 6.622 4.49025C6.622 3.77068 6.09973 3.24829 5.38016 3.24829Z" fill="#ED3533"/>
<path id="Vector_3" d="M10.8323 3.24829C10.4148 3.24829 10.027 3.45188 9.79385 3.79277L9.74576 3.85389L9.71359 3.81289C9.48312 3.45953 9.09461 3.24841 8.67284 3.24841C7.95315 3.24841 7.43091 3.7708 7.43091 4.49025C7.43091 5.55257 9.35418 7.11838 9.49444 7.2311C9.56064 7.29444 9.64731 7.32926 9.73926 7.32926C9.83111 7.32926 9.91778 7.29455 9.98409 7.23101C10.1247 7.11749 12.074 5.52705 12.074 4.49025C12.0741 3.77068 11.5519 3.24829 10.8323 3.24829Z" fill="#ED3533"/>
</g>
<path id="Vector_4" d="M10.1398 9.36022C8.38861 11.1422 5.57104 11.1283 3.83446 9.33369C3.58633 9.07725 3.19592 9.46842 3.44374 9.72442C5.38656 11.7322 8.57321 11.743 10.5305 9.75095C10.7804 9.49672 10.3898 9.10576 10.1398 9.36022Z" fill="#333333"/>
</g>
<defs>
<clipPath id="clip0_1_2035">
<rect width="14" height="14" fill="white"/>
</clipPath>
</defs>
</svg>
