<svg width="312" height="335" viewBox="0 0 312 335" fill="none" xmlns="http://www.w3.org/2000/svg">
<ellipse cx="2.46005" cy="228.468" rx="1.62688" ry="1.88614" transform="rotate(-58.2378 2.46005 228.468)" fill="#0B363B"/>
<ellipse cx="12.7365" cy="211.869" rx="1.62688" ry="1.88614" transform="rotate(-58.2378 12.7365 211.869)" fill="#0B363B"/>
<ellipse cx="23.0133" cy="195.27" rx="1.62688" ry="1.88614" transform="rotate(-58.2378 23.0133 195.27)" fill="#0B363B"/>
<ellipse cx="33.2899" cy="178.672" rx="1.62688" ry="1.88614" transform="rotate(-58.2378 33.2899 178.672)" fill="#0B363B"/>
<ellipse cx="43.5665" cy="162.073" rx="1.62688" ry="1.88614" transform="rotate(-58.2378 43.5665 162.073)" fill="#0B363B"/>
<ellipse cx="53.8429" cy="145.474" rx="1.62688" ry="1.88614" transform="rotate(-58.2378 53.8429 145.474)" fill="#0B363B"/>
<ellipse cx="64.1195" cy="128.875" rx="1.62688" ry="1.88614" transform="rotate(-58.2378 64.1195 128.875)" fill="#0B363B"/>
<ellipse cx="74.3961" cy="112.276" rx="1.62688" ry="1.88614" transform="rotate(-58.2378 74.3961 112.276)" fill="#0B363B"/>
<ellipse cx="84.6727" cy="95.6772" rx="1.62688" ry="1.88614" transform="rotate(-58.2378 84.6727 95.6772)" fill="#0B363B"/>
<ellipse cx="94.9493" cy="79.0784" rx="1.62688" ry="1.88614" transform="rotate(-58.2378 94.9493 79.0784)" fill="#0B363B"/>
<ellipse cx="21.7042" cy="240.382" rx="1.62688" ry="1.88614" transform="rotate(-58.2378 21.7042 240.382)" fill="#0B363B"/>
<ellipse cx="31.9808" cy="223.784" rx="1.62688" ry="1.88614" transform="rotate(-58.2378 31.9808 223.784)" fill="#0B363B"/>
<ellipse cx="42.2574" cy="207.185" rx="1.62688" ry="1.88614" transform="rotate(-58.2378 42.2574 207.185)" fill="#0B363B"/>
<ellipse cx="52.534" cy="190.586" rx="1.62688" ry="1.88614" transform="rotate(-58.2378 52.534 190.586)" fill="#0B363B"/>
<ellipse cx="62.8106" cy="173.987" rx="1.62688" ry="1.88614" transform="rotate(-58.2378 62.8106 173.987)" fill="#0B363B"/>
<ellipse cx="73.0872" cy="157.388" rx="1.62688" ry="1.88614" transform="rotate(-58.2378 73.0872 157.388)" fill="#0B363B"/>
<ellipse cx="83.3639" cy="140.789" rx="1.62688" ry="1.88614" transform="rotate(-58.2378 83.3639 140.789)" fill="#0B363B"/>
<ellipse cx="93.6402" cy="124.19" rx="1.62688" ry="1.88614" transform="rotate(-58.2378 93.6402 124.19)" fill="#0B363B"/>
<ellipse cx="103.917" cy="107.592" rx="1.62688" ry="1.88614" transform="rotate(-58.2378 103.917 107.592)" fill="#0B363B"/>
<ellipse cx="114.193" cy="90.9928" rx="1.62688" ry="1.88614" transform="rotate(-58.2378 114.193 90.9928)" fill="#0B363B"/>
<ellipse cx="40.9481" cy="252.296" rx="1.62688" ry="1.88614" transform="rotate(-58.2378 40.9481 252.296)" fill="#0B363B"/>
<ellipse cx="51.2247" cy="235.698" rx="1.62688" ry="1.88614" transform="rotate(-58.2378 51.2247 235.698)" fill="#0B363B"/>
<ellipse cx="61.5013" cy="219.099" rx="1.62688" ry="1.88614" transform="rotate(-58.2378 61.5013 219.099)" fill="#0B363B"/>
<ellipse cx="71.7777" cy="202.5" rx="1.62688" ry="1.88614" transform="rotate(-58.2378 71.7777 202.5)" fill="#0B363B"/>
<ellipse cx="82.0543" cy="185.901" rx="1.62688" ry="1.88614" transform="rotate(-58.2378 82.0543 185.901)" fill="#0B363B"/>
<ellipse cx="92.3309" cy="169.302" rx="1.62688" ry="1.88614" transform="rotate(-58.2378 92.3309 169.302)" fill="#0B363B"/>
<ellipse cx="102.608" cy="152.703" rx="1.62688" ry="1.88614" transform="rotate(-58.2378 102.608 152.703)" fill="#0B363B"/>
<ellipse cx="112.884" cy="136.104" rx="1.62688" ry="1.88614" transform="rotate(-58.2378 112.884 136.104)" fill="#0B363B"/>
<ellipse cx="123.161" cy="119.506" rx="1.62688" ry="1.88614" transform="rotate(-58.2378 123.161 119.506)" fill="#0B363B"/>
<ellipse cx="133.437" cy="102.907" rx="1.62688" ry="1.88614" transform="rotate(-58.2378 133.437 102.907)" fill="#0B363B"/>
<ellipse cx="60.1922" cy="264.211" rx="1.62688" ry="1.88614" transform="rotate(-58.2378 60.1922 264.211)" fill="#0B363B"/>
<ellipse cx="70.4688" cy="247.612" rx="1.62688" ry="1.88614" transform="rotate(-58.2378 70.4688 247.612)" fill="#0B363B"/>
<ellipse cx="80.7455" cy="231.013" rx="1.62688" ry="1.88614" transform="rotate(-58.2378 80.7455 231.013)" fill="#0B363B"/>
<ellipse cx="91.0221" cy="214.414" rx="1.62688" ry="1.88614" transform="rotate(-58.2378 91.0221 214.414)" fill="#0B363B"/>
<ellipse cx="101.299" cy="197.815" rx="1.62688" ry="1.88614" transform="rotate(-58.2378 101.299 197.815)" fill="#0B363B"/>
<ellipse cx="111.575" cy="181.217" rx="1.62688" ry="1.88614" transform="rotate(-58.2378 111.575 181.217)" fill="#0B363B"/>
<ellipse cx="121.852" cy="164.618" rx="1.62688" ry="1.88614" transform="rotate(-58.2378 121.852 164.618)" fill="#0B363B"/>
<ellipse cx="132.128" cy="148.019" rx="1.62688" ry="1.88614" transform="rotate(-58.2378 132.128 148.019)" fill="#0B363B"/>
<ellipse cx="142.405" cy="131.42" rx="1.62688" ry="1.88614" transform="rotate(-58.2378 142.405 131.42)" fill="#0B363B"/>
<ellipse cx="152.681" cy="114.821" rx="1.62688" ry="1.88614" transform="rotate(-58.2378 152.681 114.821)" fill="#0B363B"/>
<ellipse cx="79.4361" cy="276.125" rx="1.62688" ry="1.88614" transform="rotate(-58.2378 79.4361 276.125)" fill="#0B363B"/>
<ellipse cx="89.7125" cy="259.526" rx="1.62688" ry="1.88614" transform="rotate(-58.2378 89.7125 259.526)" fill="#0B363B"/>
<ellipse cx="99.9893" cy="242.927" rx="1.62688" ry="1.88614" transform="rotate(-58.2378 99.9893 242.927)" fill="#0B363B"/>
<ellipse cx="110.266" cy="226.328" rx="1.62688" ry="1.88614" transform="rotate(-58.2378 110.266 226.328)" fill="#0B363B"/>
<ellipse cx="120.542" cy="209.729" rx="1.62688" ry="1.88614" transform="rotate(-58.2378 120.542 209.729)" fill="#0B363B"/>
<ellipse cx="130.819" cy="193.131" rx="1.62688" ry="1.88614" transform="rotate(-58.2378 130.819 193.131)" fill="#0B363B"/>
<ellipse cx="141.096" cy="176.532" rx="1.62688" ry="1.88614" transform="rotate(-58.2378 141.096 176.532)" fill="#0B363B"/>
<ellipse cx="151.372" cy="159.933" rx="1.62688" ry="1.88614" transform="rotate(-58.2378 151.372 159.933)" fill="#0B363B"/>
<ellipse cx="161.649" cy="143.334" rx="1.62688" ry="1.88614" transform="rotate(-58.2378 161.649 143.334)" fill="#0B363B"/>
<ellipse cx="171.925" cy="126.735" rx="1.62688" ry="1.88614" transform="rotate(-58.2378 171.925 126.735)" fill="#0B363B"/>
<ellipse cx="98.6803" cy="288.039" rx="1.62688" ry="1.88614" transform="rotate(-58.2378 98.6803 288.039)" fill="#0B363B"/>
<ellipse cx="108.957" cy="271.44" rx="1.62688" ry="1.88614" transform="rotate(-58.2378 108.957 271.44)" fill="#0B363B"/>
<ellipse cx="119.233" cy="254.842" rx="1.62688" ry="1.88614" transform="rotate(-58.2378 119.233 254.842)" fill="#0B363B"/>
<ellipse cx="129.51" cy="238.243" rx="1.62688" ry="1.88614" transform="rotate(-58.2378 129.51 238.243)" fill="#0B363B"/>
<ellipse cx="139.787" cy="221.644" rx="1.62688" ry="1.88614" transform="rotate(-58.2378 139.787 221.644)" fill="#0B363B"/>
<ellipse cx="150.063" cy="205.045" rx="1.62688" ry="1.88614" transform="rotate(-58.2378 150.063 205.045)" fill="#0B363B"/>
<ellipse cx="160.34" cy="188.446" rx="1.62688" ry="1.88614" transform="rotate(-58.2378 160.34 188.446)" fill="#0B363B"/>
<ellipse cx="170.616" cy="171.847" rx="1.62688" ry="1.88614" transform="rotate(-58.2378 170.616 171.847)" fill="#0B363B"/>
<ellipse cx="180.893" cy="155.249" rx="1.62688" ry="1.88614" transform="rotate(-58.2378 180.893 155.249)" fill="#0B363B"/>
<ellipse cx="191.17" cy="138.65" rx="1.62688" ry="1.88614" transform="rotate(-58.2378 191.17 138.65)" fill="#0B363B"/>
<ellipse cx="117.924" cy="299.954" rx="1.62688" ry="1.88614" transform="rotate(-58.2378 117.924 299.954)" fill="#0B363B"/>
<ellipse cx="128.201" cy="283.355" rx="1.62688" ry="1.88614" transform="rotate(-58.2378 128.201 283.355)" fill="#0B363B"/>
<ellipse cx="138.477" cy="266.756" rx="1.62688" ry="1.88614" transform="rotate(-58.2378 138.477 266.756)" fill="#0B363B"/>
<ellipse cx="148.754" cy="250.157" rx="1.62688" ry="1.88614" transform="rotate(-58.2378 148.754 250.157)" fill="#0B363B"/>
<ellipse cx="159.031" cy="233.558" rx="1.62688" ry="1.88614" transform="rotate(-58.2378 159.031 233.558)" fill="#0B363B"/>
<ellipse cx="169.307" cy="216.959" rx="1.62688" ry="1.88614" transform="rotate(-58.2378 169.307 216.959)" fill="#0B363B"/>
<ellipse cx="179.584" cy="200.361" rx="1.62688" ry="1.88614" transform="rotate(-58.2378 179.584 200.361)" fill="#0B363B"/>
<ellipse cx="189.86" cy="183.762" rx="1.62688" ry="1.88614" transform="rotate(-58.2378 189.86 183.762)" fill="#0B363B"/>
<ellipse cx="200.137" cy="167.163" rx="1.62688" ry="1.88614" transform="rotate(-58.2378 200.137 167.163)" fill="#0B363B"/>
<ellipse cx="210.413" cy="150.564" rx="1.62688" ry="1.88614" transform="rotate(-58.2378 210.413 150.564)" fill="#0B363B"/>
<ellipse cx="129.684" cy="307.234" rx="1.62688" ry="1.88614" transform="rotate(-58.2378 129.684 307.234)" fill="#0B363B"/>
<ellipse cx="139.961" cy="290.635" rx="1.62688" ry="1.88614" transform="rotate(-58.2378 139.961 290.635)" fill="#0B363B"/>
<ellipse cx="150.238" cy="274.037" rx="1.62688" ry="1.88614" transform="rotate(-58.2378 150.238 274.037)" fill="#0B363B"/>
<ellipse cx="160.514" cy="257.438" rx="1.62688" ry="1.88614" transform="rotate(-58.2378 160.514 257.438)" fill="#0B363B"/>
<ellipse cx="170.791" cy="240.839" rx="1.62688" ry="1.88614" transform="rotate(-58.2378 170.791 240.839)" fill="#0B363B"/>
<ellipse cx="181.067" cy="224.24" rx="1.62688" ry="1.88614" transform="rotate(-58.2378 181.067 224.24)" fill="#0B363B"/>
<ellipse cx="191.344" cy="207.641" rx="1.62688" ry="1.88614" transform="rotate(-58.2378 191.344 207.641)" fill="#0B363B"/>
<ellipse cx="201.62" cy="191.042" rx="1.62688" ry="1.88614" transform="rotate(-58.2378 201.62 191.042)" fill="#0B363B"/>
<ellipse cx="211.897" cy="174.444" rx="1.62688" ry="1.88614" transform="rotate(-58.2378 211.897 174.444)" fill="#0B363B"/>
<ellipse cx="222.174" cy="157.845" rx="1.62688" ry="1.88614" transform="rotate(-58.2378 222.174 157.845)" fill="#0B363B"/>
<ellipse cx="148.929" cy="319.149" rx="1.62688" ry="1.88614" transform="rotate(-58.2378 148.929 319.149)" fill="#0B363B"/>
<ellipse cx="159.205" cy="302.55" rx="1.62688" ry="1.88614" transform="rotate(-58.2378 159.205 302.55)" fill="#0B363B"/>
<ellipse cx="169.482" cy="285.951" rx="1.62688" ry="1.88614" transform="rotate(-58.2378 169.482 285.951)" fill="#0B363B"/>
<ellipse cx="179.758" cy="269.352" rx="1.62688" ry="1.88614" transform="rotate(-58.2378 179.758 269.352)" fill="#0B363B"/>
<ellipse cx="190.035" cy="252.753" rx="1.62688" ry="1.88614" transform="rotate(-58.2378 190.035 252.753)" fill="#0B363B"/>
<ellipse cx="200.312" cy="236.155" rx="1.62688" ry="1.88614" transform="rotate(-58.2378 200.312 236.155)" fill="#0B363B"/>
<ellipse cx="210.588" cy="219.556" rx="1.62688" ry="1.88614" transform="rotate(-58.2378 210.588 219.556)" fill="#0B363B"/>
<ellipse cx="220.865" cy="202.957" rx="1.62688" ry="1.88614" transform="rotate(-58.2378 220.865 202.957)" fill="#0B363B"/>
<ellipse cx="231.141" cy="186.358" rx="1.62688" ry="1.88614" transform="rotate(-58.2378 231.141 186.358)" fill="#0B363B"/>
<ellipse cx="241.418" cy="169.759" rx="1.62688" ry="1.88614" transform="rotate(-58.2378 241.418 169.759)" fill="#0B363B"/>
<ellipse cx="118.539" cy="78.7376" rx="1.62688" ry="1.88614" transform="rotate(31.2061 118.539 78.7376)" fill="#0B363B"/>
<ellipse cx="135.237" cy="88.8525" rx="1.62688" ry="1.88614" transform="rotate(31.2061 135.237 88.8525)" fill="#0B363B"/>
<ellipse cx="151.935" cy="98.9675" rx="1.62688" ry="1.88614" transform="rotate(31.2061 151.935 98.9675)" fill="#0B363B"/>
<ellipse cx="168.633" cy="109.082" rx="1.62688" ry="1.88614" transform="rotate(31.2061 168.633 109.082)" fill="#0B363B"/>
<ellipse cx="185.331" cy="119.198" rx="1.62688" ry="1.88614" transform="rotate(31.2061 185.331 119.198)" fill="#0B363B"/>
<ellipse cx="202.029" cy="129.313" rx="1.62688" ry="1.88614" transform="rotate(31.2061 202.029 129.313)" fill="#0B363B"/>
<ellipse cx="208.034" cy="132.81" rx="1.62688" ry="1.88614" transform="rotate(31.2061 208.034 132.81)" fill="#0B363B"/>
<ellipse cx="229.009" cy="145.572" rx="1.62688" ry="1.88614" transform="rotate(31.2061 229.009 145.572)" fill="#0B363B"/>
<ellipse cx="248.915" cy="157.671" rx="1.62688" ry="1.88614" transform="rotate(31.2061 248.915 157.671)" fill="#0B363B"/>
<ellipse cx="268.819" cy="169.773" rx="1.62688" ry="1.88614" transform="rotate(31.2061 268.819 169.773)" fill="#0B363B"/>
<ellipse cx="235.629" cy="134.879" rx="1.62688" ry="1.88614" transform="rotate(31.2061 235.629 134.879)" fill="#0B363B"/>
<ellipse cx="255.535" cy="146.978" rx="1.62688" ry="1.88614" transform="rotate(31.2061 255.535 146.978)" fill="#0B363B"/>
<ellipse cx="275.439" cy="159.08" rx="1.62688" ry="1.88614" transform="rotate(31.2061 275.439 159.08)" fill="#0B363B"/>
<ellipse cx="242.248" cy="124.187" rx="1.62688" ry="1.88614" transform="rotate(31.2061 242.248 124.187)" fill="#0B363B"/>
<ellipse cx="262.155" cy="136.286" rx="1.62688" ry="1.88614" transform="rotate(31.2061 262.155 136.286)" fill="#0B363B"/>
<ellipse cx="282.059" cy="148.388" rx="1.62688" ry="1.88614" transform="rotate(31.2061 282.059 148.388)" fill="#0B363B"/>
<ellipse cx="248.868" cy="113.494" rx="1.62688" ry="1.88614" transform="rotate(31.2061 248.868 113.494)" fill="#0B363B"/>
<ellipse cx="268.775" cy="125.593" rx="1.62688" ry="1.88614" transform="rotate(31.2061 268.775 125.593)" fill="#0B363B"/>
<ellipse cx="288.679" cy="137.695" rx="1.62688" ry="1.88614" transform="rotate(31.2061 288.679 137.695)" fill="#0B363B"/>
<ellipse cx="255.488" cy="102.803" rx="1.62688" ry="1.88614" transform="rotate(31.2061 255.488 102.803)" fill="#0B363B"/>
<ellipse cx="275.394" cy="114.902" rx="1.62688" ry="1.88614" transform="rotate(31.2061 275.394 114.902)" fill="#0B363B"/>
<ellipse cx="295.298" cy="127.004" rx="1.62688" ry="1.88614" transform="rotate(31.2061 295.298 127.004)" fill="#0B363B"/>
<ellipse cx="262.107" cy="92.1108" rx="1.62688" ry="1.88614" transform="rotate(31.2061 262.107 92.1108)" fill="#0B363B"/>
<ellipse cx="282.013" cy="104.21" rx="1.62688" ry="1.88614" transform="rotate(31.2061 282.013 104.21)" fill="#0B363B"/>
<ellipse cx="301.917" cy="116.312" rx="1.62688" ry="1.88614" transform="rotate(31.2061 301.917 116.312)" fill="#0B363B"/>
<ellipse cx="268.726" cy="81.419" rx="1.62688" ry="1.88614" transform="rotate(31.2061 268.726 81.419)" fill="#0B363B"/>
<ellipse cx="288.633" cy="93.5179" rx="1.62688" ry="1.88614" transform="rotate(31.2061 288.633 93.5179)" fill="#0B363B"/>
<ellipse cx="308.537" cy="105.62" rx="1.62688" ry="1.88614" transform="rotate(31.2061 308.537 105.62)" fill="#0B363B"/>
<ellipse cx="168.172" cy="331.063" rx="1.62688" ry="1.88614" transform="rotate(-58.2378 168.172 331.063)" fill="#0B363B"/>
<ellipse cx="178.449" cy="314.464" rx="1.62688" ry="1.88614" transform="rotate(-58.2378 178.449 314.464)" fill="#0B363B"/>
<ellipse cx="188.726" cy="297.865" rx="1.62688" ry="1.88614" transform="rotate(-58.2378 188.726 297.865)" fill="#0B363B"/>
<ellipse cx="199.002" cy="281.266" rx="1.62688" ry="1.88614" transform="rotate(-58.2378 199.002 281.266)" fill="#0B363B"/>
<ellipse cx="209.279" cy="264.667" rx="1.62688" ry="1.88614" transform="rotate(-58.2378 209.279 264.667)" fill="#0B363B"/>
<ellipse cx="219.555" cy="248.069" rx="1.62688" ry="1.88614" transform="rotate(-58.2378 219.555 248.069)" fill="#0B363B"/>
<ellipse cx="229.832" cy="231.47" rx="1.62688" ry="1.88614" transform="rotate(-58.2378 229.832 231.47)" fill="#0B363B"/>
<ellipse cx="240.108" cy="214.871" rx="1.62688" ry="1.88614" transform="rotate(-58.2378 240.108 214.871)" fill="#0B363B"/>
<ellipse cx="250.385" cy="198.272" rx="1.62688" ry="1.88614" transform="rotate(-58.2378 250.385 198.272)" fill="#0B363B"/>
<ellipse cx="260.662" cy="181.673" rx="1.62688" ry="1.88614" transform="rotate(-58.2378 260.662 181.673)" fill="#0B363B"/>
</svg>
