<svg width="312" height="335" viewBox="0 0 312 335" fill="none" xmlns="http://www.w3.org/2000/svg">
<ellipse cx="1.62688" cy="1.88614" rx="1.62688" ry="1.88614" transform="matrix(-0.526396 -0.85024 -0.85024 0.526396 311.598 228.858)" fill="#0B363B"/>
<ellipse cx="1.62688" cy="1.88614" rx="1.62688" ry="1.88614" transform="matrix(-0.526396 -0.85024 -0.85024 0.526396 301.321 212.26)" fill="#0B363B"/>
<ellipse cx="1.62688" cy="1.88614" rx="1.62688" ry="1.88614" transform="matrix(-0.526396 -0.85024 -0.85024 0.526396 291.045 195.661)" fill="#0B363B"/>
<ellipse cx="1.62688" cy="1.88614" rx="1.62688" ry="1.88614" transform="matrix(-0.526396 -0.85024 -0.85024 0.526396 280.768 179.062)" fill="#0B363B"/>
<ellipse cx="1.62688" cy="1.88614" rx="1.62688" ry="1.88614" transform="matrix(-0.526396 -0.85024 -0.85024 0.526396 270.491 162.463)" fill="#0B363B"/>
<ellipse cx="1.62688" cy="1.88614" rx="1.62688" ry="1.88614" transform="matrix(-0.526396 -0.85024 -0.85024 0.526396 260.215 145.864)" fill="#0B363B"/>
<ellipse cx="1.62688" cy="1.88614" rx="1.62688" ry="1.88614" transform="matrix(-0.526396 -0.85024 -0.85024 0.526396 249.938 129.265)" fill="#0B363B"/>
<ellipse cx="1.62688" cy="1.88614" rx="1.62688" ry="1.88614" transform="matrix(-0.526396 -0.85024 -0.85024 0.526396 239.662 112.667)" fill="#0B363B"/>
<ellipse cx="1.62688" cy="1.88614" rx="1.62688" ry="1.88614" transform="matrix(-0.526396 -0.85024 -0.85024 0.526396 229.385 96.0676)" fill="#0B363B"/>
<ellipse cx="1.62688" cy="1.88614" rx="1.62688" ry="1.88614" transform="matrix(-0.526396 -0.85024 -0.85024 0.526396 219.109 79.4688)" fill="#0B363B"/>
<ellipse cx="1.62688" cy="1.88614" rx="1.62688" ry="1.88614" transform="matrix(-0.526396 -0.85024 -0.85024 0.526396 292.354 240.773)" fill="#0B363B"/>
<ellipse cx="1.62688" cy="1.88614" rx="1.62688" ry="1.88614" transform="matrix(-0.526396 -0.85024 -0.85024 0.526396 282.077 224.174)" fill="#0B363B"/>
<ellipse cx="1.62688" cy="1.88614" rx="1.62688" ry="1.88614" transform="matrix(-0.526396 -0.85024 -0.85024 0.526396 271.8 207.575)" fill="#0B363B"/>
<ellipse cx="1.62688" cy="1.88614" rx="1.62688" ry="1.88614" transform="matrix(-0.526396 -0.85024 -0.85024 0.526396 261.524 190.976)" fill="#0B363B"/>
<ellipse cx="1.62688" cy="1.88614" rx="1.62688" ry="1.88614" transform="matrix(-0.526396 -0.85024 -0.85024 0.526396 251.247 174.377)" fill="#0B363B"/>
<ellipse cx="1.62688" cy="1.88614" rx="1.62688" ry="1.88614" transform="matrix(-0.526396 -0.85024 -0.85024 0.526396 240.971 157.779)" fill="#0B363B"/>
<ellipse cx="1.62688" cy="1.88614" rx="1.62688" ry="1.88614" transform="matrix(-0.526396 -0.85024 -0.85024 0.526396 230.694 141.18)" fill="#0B363B"/>
<ellipse cx="1.62688" cy="1.88614" rx="1.62688" ry="1.88614" transform="matrix(-0.526396 -0.85024 -0.85024 0.526396 220.418 124.581)" fill="#0B363B"/>
<ellipse cx="1.62688" cy="1.88614" rx="1.62688" ry="1.88614" transform="matrix(-0.526396 -0.85024 -0.85024 0.526396 210.141 107.982)" fill="#0B363B"/>
<ellipse cx="1.62688" cy="1.88614" rx="1.62688" ry="1.88614" transform="matrix(-0.526396 -0.85024 -0.85024 0.526396 199.864 91.3831)" fill="#0B363B"/>
<ellipse cx="1.62688" cy="1.88614" rx="1.62688" ry="1.88614" transform="matrix(-0.526396 -0.85024 -0.85024 0.526396 273.11 252.687)" fill="#0B363B"/>
<ellipse cx="1.62688" cy="1.88614" rx="1.62688" ry="1.88614" transform="matrix(-0.526396 -0.85024 -0.85024 0.526396 262.833 236.088)" fill="#0B363B"/>
<ellipse cx="1.62688" cy="1.88614" rx="1.62688" ry="1.88614" transform="matrix(-0.526396 -0.85024 -0.85024 0.526396 252.557 219.489)" fill="#0B363B"/>
<ellipse cx="1.62688" cy="1.88614" rx="1.62688" ry="1.88614" transform="matrix(-0.526396 -0.85024 -0.85024 0.526396 242.28 202.89)" fill="#0B363B"/>
<ellipse cx="1.62688" cy="1.88614" rx="1.62688" ry="1.88614" transform="matrix(-0.526396 -0.85024 -0.85024 0.526396 232.003 186.291)" fill="#0B363B"/>
<ellipse cx="1.62688" cy="1.88614" rx="1.62688" ry="1.88614" transform="matrix(-0.526396 -0.85024 -0.85024 0.526396 221.727 169.693)" fill="#0B363B"/>
<ellipse cx="1.62688" cy="1.88614" rx="1.62688" ry="1.88614" transform="matrix(-0.526396 -0.85024 -0.85024 0.526396 211.45 153.094)" fill="#0B363B"/>
<ellipse cx="1.62688" cy="1.88614" rx="1.62688" ry="1.88614" transform="matrix(-0.526396 -0.85024 -0.85024 0.526396 201.174 136.495)" fill="#0B363B"/>
<ellipse cx="1.62688" cy="1.88614" rx="1.62688" ry="1.88614" transform="matrix(-0.526396 -0.85024 -0.85024 0.526396 190.897 119.896)" fill="#0B363B"/>
<ellipse cx="1.62688" cy="1.88614" rx="1.62688" ry="1.88614" transform="matrix(-0.526396 -0.85024 -0.85024 0.526396 180.62 103.297)" fill="#0B363B"/>
<ellipse cx="1.62688" cy="1.88614" rx="1.62688" ry="1.88614" transform="matrix(-0.526396 -0.85024 -0.85024 0.526396 253.866 264.601)" fill="#0B363B"/>
<ellipse cx="1.62688" cy="1.88614" rx="1.62688" ry="1.88614" transform="matrix(-0.526396 -0.85024 -0.85024 0.526396 243.589 248.002)" fill="#0B363B"/>
<ellipse cx="1.62688" cy="1.88614" rx="1.62688" ry="1.88614" transform="matrix(-0.526396 -0.85024 -0.85024 0.526396 233.312 231.403)" fill="#0B363B"/>
<ellipse cx="1.62688" cy="1.88614" rx="1.62688" ry="1.88614" transform="matrix(-0.526396 -0.85024 -0.85024 0.526396 223.036 214.805)" fill="#0B363B"/>
<ellipse cx="1.62688" cy="1.88614" rx="1.62688" ry="1.88614" transform="matrix(-0.526396 -0.85024 -0.85024 0.526396 212.759 198.206)" fill="#0B363B"/>
<ellipse cx="1.62688" cy="1.88614" rx="1.62688" ry="1.88614" transform="matrix(-0.526396 -0.85024 -0.85024 0.526396 202.483 181.607)" fill="#0B363B"/>
<ellipse cx="1.62688" cy="1.88614" rx="1.62688" ry="1.88614" transform="matrix(-0.526396 -0.85024 -0.85024 0.526396 192.206 165.008)" fill="#0B363B"/>
<ellipse cx="1.62688" cy="1.88614" rx="1.62688" ry="1.88614" transform="matrix(-0.526396 -0.85024 -0.85024 0.526396 181.93 148.409)" fill="#0B363B"/>
<ellipse cx="1.62688" cy="1.88614" rx="1.62688" ry="1.88614" transform="matrix(-0.526396 -0.85024 -0.85024 0.526396 171.653 131.81)" fill="#0B363B"/>
<ellipse cx="1.62688" cy="1.88614" rx="1.62688" ry="1.88614" transform="matrix(-0.526396 -0.85024 -0.85024 0.526396 161.376 115.211)" fill="#0B363B"/>
<ellipse cx="1.62688" cy="1.88614" rx="1.62688" ry="1.88614" transform="matrix(-0.526396 -0.85024 -0.85024 0.526396 234.622 276.515)" fill="#0B363B"/>
<ellipse cx="1.62688" cy="1.88614" rx="1.62688" ry="1.88614" transform="matrix(-0.526396 -0.85024 -0.85024 0.526396 224.345 259.917)" fill="#0B363B"/>
<ellipse cx="1.62688" cy="1.88614" rx="1.62688" ry="1.88614" transform="matrix(-0.526396 -0.85024 -0.85024 0.526396 214.068 243.318)" fill="#0B363B"/>
<ellipse cx="1.62688" cy="1.88614" rx="1.62688" ry="1.88614" transform="matrix(-0.526396 -0.85024 -0.85024 0.526396 203.792 226.719)" fill="#0B363B"/>
<ellipse cx="1.62688" cy="1.88614" rx="1.62688" ry="1.88614" transform="matrix(-0.526396 -0.85024 -0.85024 0.526396 193.515 210.12)" fill="#0B363B"/>
<ellipse cx="1.62688" cy="1.88614" rx="1.62688" ry="1.88614" transform="matrix(-0.526396 -0.85024 -0.85024 0.526396 183.239 193.521)" fill="#0B363B"/>
<ellipse cx="1.62688" cy="1.88614" rx="1.62688" ry="1.88614" transform="matrix(-0.526396 -0.85024 -0.85024 0.526396 172.962 176.922)" fill="#0B363B"/>
<ellipse cx="1.62688" cy="1.88614" rx="1.62688" ry="1.88614" transform="matrix(-0.526396 -0.85024 -0.85024 0.526396 162.686 160.323)" fill="#0B363B"/>
<ellipse cx="1.62688" cy="1.88614" rx="1.62688" ry="1.88614" transform="matrix(-0.526396 -0.85024 -0.85024 0.526396 152.409 143.725)" fill="#0B363B"/>
<ellipse cx="1.62688" cy="1.88614" rx="1.62688" ry="1.88614" transform="matrix(-0.526396 -0.85024 -0.85024 0.526396 142.132 127.126)" fill="#0B363B"/>
<ellipse cx="1.62688" cy="1.88614" rx="1.62688" ry="1.88614" transform="matrix(-0.526396 -0.85024 -0.85024 0.526396 215.378 288.43)" fill="#0B363B"/>
<ellipse cx="1.62688" cy="1.88614" rx="1.62688" ry="1.88614" transform="matrix(-0.526396 -0.85024 -0.85024 0.526396 205.101 271.831)" fill="#0B363B"/>
<ellipse cx="1.62688" cy="1.88614" rx="1.62688" ry="1.88614" transform="matrix(-0.526396 -0.85024 -0.85024 0.526396 194.824 255.232)" fill="#0B363B"/>
<ellipse cx="1.62688" cy="1.88614" rx="1.62688" ry="1.88614" transform="matrix(-0.526396 -0.85024 -0.85024 0.526396 184.548 238.633)" fill="#0B363B"/>
<ellipse cx="1.62688" cy="1.88614" rx="1.62688" ry="1.88614" transform="matrix(-0.526396 -0.85024 -0.85024 0.526396 174.271 222.034)" fill="#0B363B"/>
<ellipse cx="1.62688" cy="1.88614" rx="1.62688" ry="1.88614" transform="matrix(-0.526396 -0.85024 -0.85024 0.526396 163.995 205.436)" fill="#0B363B"/>
<ellipse cx="1.62688" cy="1.88614" rx="1.62688" ry="1.88614" transform="matrix(-0.526396 -0.85024 -0.85024 0.526396 153.718 188.837)" fill="#0B363B"/>
<ellipse cx="1.62688" cy="1.88614" rx="1.62688" ry="1.88614" transform="matrix(-0.526396 -0.85024 -0.85024 0.526396 143.441 172.238)" fill="#0B363B"/>
<ellipse cx="1.62688" cy="1.88614" rx="1.62688" ry="1.88614" transform="matrix(-0.526396 -0.85024 -0.85024 0.526396 133.165 155.639)" fill="#0B363B"/>
<ellipse cx="1.62688" cy="1.88614" rx="1.62688" ry="1.88614" transform="matrix(-0.526396 -0.85024 -0.85024 0.526396 122.888 139.04)" fill="#0B363B"/>
<ellipse cx="1.62688" cy="1.88614" rx="1.62688" ry="1.88614" transform="matrix(-0.526396 -0.85024 -0.85024 0.526396 196.134 300.344)" fill="#0B363B"/>
<ellipse cx="1.62688" cy="1.88614" rx="1.62688" ry="1.88614" transform="matrix(-0.526396 -0.85024 -0.85024 0.526396 185.857 283.745)" fill="#0B363B"/>
<ellipse cx="1.62688" cy="1.88614" rx="1.62688" ry="1.88614" transform="matrix(-0.526396 -0.85024 -0.85024 0.526396 175.58 267.146)" fill="#0B363B"/>
<ellipse cx="1.62688" cy="1.88614" rx="1.62688" ry="1.88614" transform="matrix(-0.526396 -0.85024 -0.85024 0.526396 165.304 250.548)" fill="#0B363B"/>
<ellipse cx="1.62688" cy="1.88614" rx="1.62688" ry="1.88614" transform="matrix(-0.526396 -0.85024 -0.85024 0.526396 155.027 233.949)" fill="#0B363B"/>
<ellipse cx="1.62688" cy="1.88614" rx="1.62688" ry="1.88614" transform="matrix(-0.526396 -0.85024 -0.85024 0.526396 144.751 217.35)" fill="#0B363B"/>
<ellipse cx="1.62688" cy="1.88614" rx="1.62688" ry="1.88614" transform="matrix(-0.526396 -0.85024 -0.85024 0.526396 134.474 200.751)" fill="#0B363B"/>
<ellipse cx="1.62688" cy="1.88614" rx="1.62688" ry="1.88614" transform="matrix(-0.526396 -0.85024 -0.85024 0.526396 124.197 184.152)" fill="#0B363B"/>
<ellipse cx="1.62688" cy="1.88614" rx="1.62688" ry="1.88614" transform="matrix(-0.526396 -0.85024 -0.85024 0.526396 113.921 167.553)" fill="#0B363B"/>
<ellipse cx="1.62688" cy="1.88614" rx="1.62688" ry="1.88614" transform="matrix(-0.526396 -0.85024 -0.85024 0.526396 103.644 150.955)" fill="#0B363B"/>
<ellipse cx="1.62688" cy="1.88614" rx="1.62688" ry="1.88614" transform="matrix(-0.526396 -0.85024 -0.85024 0.526396 184.373 307.625)" fill="#0B363B"/>
<ellipse cx="1.62688" cy="1.88614" rx="1.62688" ry="1.88614" transform="matrix(-0.526396 -0.85024 -0.85024 0.526396 174.097 291.026)" fill="#0B363B"/>
<ellipse cx="1.62688" cy="1.88614" rx="1.62688" ry="1.88614" transform="matrix(-0.526396 -0.85024 -0.85024 0.526396 163.82 274.427)" fill="#0B363B"/>
<ellipse cx="1.62688" cy="1.88614" rx="1.62688" ry="1.88614" transform="matrix(-0.526396 -0.85024 -0.85024 0.526396 153.544 257.828)" fill="#0B363B"/>
<ellipse cx="1.62688" cy="1.88614" rx="1.62688" ry="1.88614" transform="matrix(-0.526396 -0.85024 -0.85024 0.526396 143.267 241.229)" fill="#0B363B"/>
<ellipse cx="1.62688" cy="1.88614" rx="1.62688" ry="1.88614" transform="matrix(-0.526396 -0.85024 -0.85024 0.526396 132.99 224.631)" fill="#0B363B"/>
<ellipse cx="1.62688" cy="1.88614" rx="1.62688" ry="1.88614" transform="matrix(-0.526396 -0.85024 -0.85024 0.526396 122.714 208.032)" fill="#0B363B"/>
<ellipse cx="1.62688" cy="1.88614" rx="1.62688" ry="1.88614" transform="matrix(-0.526396 -0.85024 -0.85024 0.526396 112.437 191.433)" fill="#0B363B"/>
<ellipse cx="1.62688" cy="1.88614" rx="1.62688" ry="1.88614" transform="matrix(-0.526396 -0.85024 -0.85024 0.526396 102.161 174.834)" fill="#0B363B"/>
<ellipse cx="1.62688" cy="1.88614" rx="1.62688" ry="1.88614" transform="matrix(-0.526396 -0.85024 -0.85024 0.526396 91.884 158.235)" fill="#0B363B"/>
<ellipse cx="1.62688" cy="1.88614" rx="1.62688" ry="1.88614" transform="matrix(-0.526396 -0.85024 -0.85024 0.526396 165.129 319.539)" fill="#0B363B"/>
<ellipse cx="1.62688" cy="1.88614" rx="1.62688" ry="1.88614" transform="matrix(-0.526396 -0.85024 -0.85024 0.526396 154.853 302.94)" fill="#0B363B"/>
<ellipse cx="1.62688" cy="1.88614" rx="1.62688" ry="1.88614" transform="matrix(-0.526396 -0.85024 -0.85024 0.526396 144.576 286.341)" fill="#0B363B"/>
<ellipse cx="1.62688" cy="1.88614" rx="1.62688" ry="1.88614" transform="matrix(-0.526396 -0.85024 -0.85024 0.526396 134.299 269.743)" fill="#0B363B"/>
<ellipse cx="1.62688" cy="1.88614" rx="1.62688" ry="1.88614" transform="matrix(-0.526396 -0.85024 -0.85024 0.526396 124.023 253.144)" fill="#0B363B"/>
<ellipse cx="1.62688" cy="1.88614" rx="1.62688" ry="1.88614" transform="matrix(-0.526396 -0.85024 -0.85024 0.526396 113.746 236.545)" fill="#0B363B"/>
<ellipse cx="1.62688" cy="1.88614" rx="1.62688" ry="1.88614" transform="matrix(-0.526396 -0.85024 -0.85024 0.526396 103.47 219.946)" fill="#0B363B"/>
<ellipse cx="1.62688" cy="1.88614" rx="1.62688" ry="1.88614" transform="matrix(-0.526396 -0.85024 -0.85024 0.526396 93.1931 203.347)" fill="#0B363B"/>
<ellipse cx="1.62688" cy="1.88614" rx="1.62688" ry="1.88614" transform="matrix(-0.526396 -0.85024 -0.85024 0.526396 82.9165 186.748)" fill="#0B363B"/>
<ellipse cx="1.62688" cy="1.88614" rx="1.62688" ry="1.88614" transform="matrix(-0.526396 -0.85024 -0.85024 0.526396 72.64 170.149)" fill="#0B363B"/>
<ellipse cx="1.62688" cy="1.88614" rx="1.62688" ry="1.88614" transform="matrix(-0.855309 0.518118 0.518118 0.855309 193.473 76.2815)" fill="#0B363B"/>
<ellipse cx="1.62688" cy="1.88614" rx="1.62688" ry="1.88614" transform="matrix(-0.855309 0.518118 0.518118 0.855309 176.775 86.3965)" fill="#0B363B"/>
<ellipse cx="1.62688" cy="1.88614" rx="1.62688" ry="1.88614" transform="matrix(-0.855309 0.518118 0.518118 0.855309 160.077 96.5112)" fill="#0B363B"/>
<ellipse cx="1.62688" cy="1.88614" rx="1.62688" ry="1.88614" transform="matrix(-0.855309 0.518118 0.518118 0.855309 143.379 106.626)" fill="#0B363B"/>
<ellipse cx="1.62688" cy="1.88614" rx="1.62688" ry="1.88614" transform="matrix(-0.855309 0.518118 0.518118 0.855309 126.681 116.741)" fill="#0B363B"/>
<ellipse cx="1.62688" cy="1.88614" rx="1.62688" ry="1.88614" transform="matrix(-0.855309 0.518118 0.518118 0.855309 109.984 126.856)" fill="#0B363B"/>
<ellipse cx="1.62688" cy="1.88614" rx="1.62688" ry="1.88614" transform="matrix(-0.855309 0.518118 0.518118 0.855309 103.978 130.354)" fill="#0B363B"/>
<ellipse cx="1.62688" cy="1.88614" rx="1.62688" ry="1.88614" transform="matrix(-0.855309 0.518118 0.518118 0.855309 83.0031 143.115)" fill="#0B363B"/>
<ellipse cx="1.62688" cy="1.88614" rx="1.62688" ry="1.88614" transform="matrix(-0.855309 0.518118 0.518118 0.855309 63.0967 155.214)" fill="#0B363B"/>
<ellipse cx="1.62688" cy="1.88614" rx="1.62688" ry="1.88614" transform="matrix(-0.855309 0.518118 0.518118 0.855309 43.1926 167.316)" fill="#0B363B"/>
<ellipse cx="1.62688" cy="1.88614" rx="1.62688" ry="1.88614" transform="matrix(-0.855309 0.518118 0.518118 0.855309 76.3834 132.423)" fill="#0B363B"/>
<ellipse cx="1.62688" cy="1.88614" rx="1.62688" ry="1.88614" transform="matrix(-0.855309 0.518118 0.518118 0.855309 56.4771 144.522)" fill="#0B363B"/>
<ellipse cx="1.62688" cy="1.88614" rx="1.62688" ry="1.88614" transform="matrix(-0.855309 0.518118 0.518118 0.855309 36.573 156.624)" fill="#0B363B"/>
<ellipse cx="1.62688" cy="1.88614" rx="1.62688" ry="1.88614" transform="matrix(-0.855309 0.518118 0.518118 0.855309 69.7635 121.731)" fill="#0B363B"/>
<ellipse cx="1.62688" cy="1.88614" rx="1.62688" ry="1.88614" transform="matrix(-0.855309 0.518118 0.518118 0.855309 49.8572 133.83)" fill="#0B363B"/>
<ellipse cx="1.62688" cy="1.88614" rx="1.62688" ry="1.88614" transform="matrix(-0.855309 0.518118 0.518118 0.855309 29.9531 145.932)" fill="#0B363B"/>
<ellipse cx="1.62688" cy="1.88614" rx="1.62688" ry="1.88614" transform="matrix(-0.855309 0.518118 0.518118 0.855309 63.1435 111.038)" fill="#0B363B"/>
<ellipse cx="1.62688" cy="1.88614" rx="1.62688" ry="1.88614" transform="matrix(-0.855309 0.518118 0.518118 0.855309 43.2372 123.137)" fill="#0B363B"/>
<ellipse cx="1.62688" cy="1.88614" rx="1.62688" ry="1.88614" transform="matrix(-0.855309 0.518118 0.518118 0.855309 23.3331 135.239)" fill="#0B363B"/>
<ellipse cx="1.62688" cy="1.88614" rx="1.62688" ry="1.88614" transform="matrix(-0.855309 0.518118 0.518118 0.855309 56.5242 100.346)" fill="#0B363B"/>
<ellipse cx="1.62688" cy="1.88614" rx="1.62688" ry="1.88614" transform="matrix(-0.855309 0.518118 0.518118 0.855309 36.6179 112.445)" fill="#0B363B"/>
<ellipse cx="1.62688" cy="1.88614" rx="1.62688" ry="1.88614" transform="matrix(-0.855309 0.518118 0.518118 0.855309 16.7137 124.547)" fill="#0B363B"/>
<ellipse cx="1.62688" cy="1.88614" rx="1.62688" ry="1.88614" transform="matrix(-0.855309 0.518118 0.518118 0.855309 49.9047 89.6545)" fill="#0B363B"/>
<ellipse cx="1.62688" cy="1.88614" rx="1.62688" ry="1.88614" transform="matrix(-0.855309 0.518118 0.518118 0.855309 29.9985 101.753)" fill="#0B363B"/>
<ellipse cx="1.62688" cy="1.88614" rx="1.62688" ry="1.88614" transform="matrix(-0.855309 0.518118 0.518118 0.855309 10.0944 113.855)" fill="#0B363B"/>
<ellipse cx="1.62688" cy="1.88614" rx="1.62688" ry="1.88614" transform="matrix(-0.855309 0.518118 0.518118 0.855309 43.2856 78.9629)" fill="#0B363B"/>
<ellipse cx="1.62688" cy="1.88614" rx="1.62688" ry="1.88614" transform="matrix(-0.855309 0.518118 0.518118 0.855309 23.3794 91.0618)" fill="#0B363B"/>
<ellipse cx="1.62688" cy="1.88614" rx="1.62688" ry="1.88614" transform="matrix(-0.855309 0.518118 0.518118 0.855309 3.47528 103.164)" fill="#0B363B"/>
<ellipse cx="1.62688" cy="1.88614" rx="1.62688" ry="1.88614" transform="matrix(-0.526396 -0.85024 -0.85024 0.526396 145.885 331.453)" fill="#0B363B"/>
<ellipse cx="1.62688" cy="1.88614" rx="1.62688" ry="1.88614" transform="matrix(-0.526396 -0.85024 -0.85024 0.526396 135.609 314.854)" fill="#0B363B"/>
<ellipse cx="1.62688" cy="1.88614" rx="1.62688" ry="1.88614" transform="matrix(-0.526396 -0.85024 -0.85024 0.526396 125.332 298.256)" fill="#0B363B"/>
<ellipse cx="1.62688" cy="1.88614" rx="1.62688" ry="1.88614" transform="matrix(-0.526396 -0.85024 -0.85024 0.526396 115.056 281.657)" fill="#0B363B"/>
<ellipse cx="1.62688" cy="1.88614" rx="1.62688" ry="1.88614" transform="matrix(-0.526396 -0.85024 -0.85024 0.526396 104.779 265.058)" fill="#0B363B"/>
<ellipse cx="1.62688" cy="1.88614" rx="1.62688" ry="1.88614" transform="matrix(-0.526396 -0.85024 -0.85024 0.526396 94.5024 248.459)" fill="#0B363B"/>
<ellipse cx="1.62688" cy="1.88614" rx="1.62688" ry="1.88614" transform="matrix(-0.526396 -0.85024 -0.85024 0.526396 84.2258 231.86)" fill="#0B363B"/>
<ellipse cx="1.62688" cy="1.88614" rx="1.62688" ry="1.88614" transform="matrix(-0.526396 -0.85024 -0.85024 0.526396 73.9492 215.261)" fill="#0B363B"/>
<ellipse cx="1.62688" cy="1.88614" rx="1.62688" ry="1.88614" transform="matrix(-0.526396 -0.85024 -0.85024 0.526396 63.6726 198.663)" fill="#0B363B"/>
<ellipse cx="1.62688" cy="1.88614" rx="1.62688" ry="1.88614" transform="matrix(-0.526396 -0.85024 -0.85024 0.526396 53.3961 182.064)" fill="#0B363B"/>
</svg>
